<svg version="1.1" id="Layer_1" xmlns="http://www.w3.org/2000/svg" xmlns:xlink="http://www.w3.org/1999/xlink" x="0px" y="0px"
	 width="100%" viewBox="0 0 100 100" enable-background="new 0 0 100 100" xml:space="preserve">
<path fill="#000000" opacity="1.000000" stroke="none" 
	d="
M60.000000,101.000000 
	C40.000004,101.000000 20.500008,101.000000 1.000008,101.000000 
	C1.000005,67.666679 1.000005,34.333351 1.000003,1.000021 
	C34.333317,1.000014 67.666634,1.000014 100.999969,1.000007 
	C100.999977,34.333313 100.999977,67.666626 100.999985,100.999969 
	C87.500000,101.000000 74.000000,101.000000 60.000000,101.000000 
M69.924522,85.692307 
	C73.183014,84.455559 76.568642,83.473686 79.671883,81.925705 
	C85.096863,79.219574 87.388710,73.490517 85.128830,69.163445 
	C81.369858,61.966007 72.431595,56.536156 67.667625,58.647049 
	C66.636612,59.103882 65.749092,59.951866 64.897751,60.731373 
	C63.548702,61.966572 62.151272,63.188187 61.014683,64.607971 
	C58.665562,67.542427 55.792103,67.853210 53.213970,65.562439 
	C47.688248,60.652603 42.252525,55.598007 37.218601,50.194069 
	C34.079174,46.823895 34.117683,43.050961 38.344620,40.016388 
	C39.676296,39.060360 40.772884,37.738098 41.852089,36.476543 
	C44.916122,32.894775 44.667488,28.594030 41.259125,24.859095 
	C33.305542,16.143435 29.008268,14.239460 24.398430,17.388689 
	C17.733351,21.941965 14.388726,34.251900 17.883553,41.566238 
	C25.940741,58.429165 38.369450,71.379288 54.297440,80.820534 
	C58.676899,83.416458 64.137703,84.188095 69.924522,85.692307 
z"/>
<path fill="#222930" opacity="1.000000" stroke="none" 
	d="
M69.513420,85.744568 
	C64.137703,84.188095 58.676899,83.416458 54.297440,80.820534 
	C38.369450,71.379288 25.940741,58.429165 17.883553,41.566238 
	C14.388726,34.251900 17.733351,21.941965 24.398430,17.388689 
	C29.008268,14.239460 33.305542,16.143435 41.259125,24.859095 
	C44.667488,28.594030 44.916122,32.894775 41.852089,36.476543 
	C40.772884,37.738098 39.676296,39.060360 38.344620,40.016388 
	C34.117683,43.050961 34.079174,46.823895 37.218601,50.194069 
	C42.252525,55.598007 47.688248,60.652603 53.213970,65.562439 
	C55.792103,67.853210 58.665562,67.542427 61.014683,64.607971 
	C62.151272,63.188187 63.548702,61.966572 64.897751,60.731373 
	C65.749092,59.951866 66.636612,59.103882 67.667625,58.647049 
	C72.431595,56.536156 81.369858,61.966007 85.128830,69.163445 
	C87.388710,73.490517 85.096863,79.219574 79.671883,81.925705 
	C76.568642,83.473686 73.183014,84.455559 69.513420,85.744568 
M36.057713,23.435585 
	C34.629990,22.036734 33.383511,20.333382 31.714481,19.339939 
	C30.484203,18.607651 28.427015,18.166729 27.212629,18.692207 
	C21.391308,21.211143 16.887363,33.682396 19.635223,39.453049 
	C28.383236,57.824337 42.093075,71.301041 59.798374,81.249550 
	C67.144447,85.377266 73.139236,82.743759 78.843460,79.285080 
	C85.549461,75.218994 85.359055,72.753479 79.700172,67.078697 
	C78.170677,65.544891 76.559875,64.084114 75.120445,62.470257 
	C72.223030,59.221756 69.549538,59.483952 66.735588,62.616966 
	C64.734261,64.845222 62.724037,67.166008 60.319622,68.890289 
	C59.074924,69.782898 56.620564,70.199829 55.300587,69.579910 
	C46.688515,65.535309 39.544228,59.769142 34.783134,51.263893 
	C30.744741,44.049679 30.695601,44.221706 36.402103,38.154629 
	C44.361092,29.692736 43.341255,30.972960 36.057713,23.435585 
z"/>
<path fill="#5EBA8F" opacity="1.000000" stroke="none" 
	d="
M36.311211,23.689121 
	C43.341255,30.972960 44.361092,29.692736 36.402103,38.154629 
	C30.695601,44.221706 30.744741,44.049679 34.783134,51.263893 
	C39.544228,59.769142 46.688515,65.535309 55.300587,69.579910 
	C56.620564,70.199829 59.074924,69.782898 60.319622,68.890289 
	C62.724037,67.166008 64.734261,64.845222 66.735588,62.616966 
	C69.549538,59.483952 72.223030,59.221756 75.120445,62.470257 
	C76.559875,64.084114 78.170677,65.544891 79.700172,67.078697 
	C85.359055,72.753479 85.549461,75.218994 78.843460,79.285080 
	C73.139236,82.743759 67.144447,85.377266 59.798374,81.249550 
	C42.093075,71.301041 28.383236,57.824337 19.635223,39.453049 
	C16.887363,33.682396 21.391308,21.211143 27.212629,18.692207 
	C28.427015,18.166729 30.484203,18.607651 31.714481,19.339939 
	C33.383511,20.333382 34.629990,22.036734 36.311211,23.689121 
z"/>
</svg>